<?xml version="1.0" standalone="no"?>
<!DOCTYPE svg PUBLIC "-//W3C//DTD SVG 20010904//EN"
 "http://www.w3.org/TR/2001/REC-SVG-20010904/DTD/svg10.dtd">
<svg version="1.0" xmlns="http://www.w3.org/2000/svg"
 width="64.000000pt" height="64.000000pt" viewBox="0 0 64.000000 64.000000"
 preserveAspectRatio="xMidYMid meet">
<metadata>
Created by potrace 1.16, written by Peter Selinger 2001-2019
</metadata>
<g transform="translate(0.000000,64.000000) scale(0.100000,-0.100000)"
fill="#000000" stroke="none">
<path d="M270 580 c-14 -5 -64 -21 -112 -35 -49 -14 -88 -30 -88 -34 0 -5 20
-14 45 -21 l45 -13 0 -64 0 -64 158 3 157 3 3 60 c3 60 12 75 45 75 15 0 17
-10 17 -79 0 -58 -4 -82 -15 -91 -9 -8 -15 -30 -15 -56 l0 -44 45 0 45 0 0 39
c0 22 -7 46 -15 55 -11 11 -15 38 -15 104 0 60 -4 93 -12 99 -13 10 -237 74
-254 72 -5 0 -20 -4 -34 -9z m142 -42 c43 -12 75 -24 71 -28 -4 -4 -45 -16
-91 -28 -83 -20 -84 -20 -155 0 -40 10 -79 22 -87 25 -18 7 112 50 154 52 16
1 64 -9 108 -21z m-145 -89 c34 -10 53 -9 107 5 36 9 68 16 71 16 3 0 5 -22 5
-50 l0 -50 -130 0 -130 0 0 51 c0 43 2 50 18 45 9 -2 36 -10 59 -17z"/>
<path d="M277 280 c-13 -16 -30 -20 -81 -20 -35 0 -72 -3 -80 -6 -26 -10 -37
-39 -26 -68 8 -23 15 -26 59 -26 45 0 49 -2 43 -22 -4 -18 -2 -20 16 -16 12 4
25 2 28 -3 9 -15 20 -10 32 16 9 19 19 25 42 25 23 0 31 -5 36 -25 6 -25 18
-32 28 -16 3 4 17 6 30 4 21 -4 24 -2 19 16 -4 18 -1 21 24 21 34 0 53 16 53
45 0 32 -31 55 -74 55 -20 0 -48 7 -61 16 -13 9 -29 13 -35 9 -6 -4 -17 -2
-24 4 -9 7 -17 5 -29 -9z"/>
</g>
</svg>
